/* XPM */
static char *_a87c3bb2e7d4664a4a90544d9135049ulNMfZamHBnnxKta[] = {
/* columns rows colors chars-per-pixel */
"50 50 170 2 ",
"   c #271716",
".  c #271816",
"X  c #2C1817",
"o  c #2E1C19",
"O  c #301C19",
"+  c #35231C",
"@  c #3B241E",
"#  c #37281F",
"$  c #3B291F",
"%  c #3D2420",
"&  c #3D2C21",
"*  c #412520",
"=  c #4A2526",
"-  c #432C22",
";  c #4C2B25",
":  c #4E2B28",
">  c #542B29",
",  c #5D2E2D",
"<  c #473327",
"1  c #4D3126",
"2  c #4C3428",
"3  c #523127",
"4  c #54342B",
"5  c #5B342C",
"6  c #53382A",
"7  c #5E3B2D",
"8  c #5E3F31",
"9  c #643B2C",
"0  c #623531",
"q  c #643B32",
"w  c #6B3A33",
"e  c #703B35",
"r  c #723E38",
"t  c #67402F",
"y  c #644132",
"u  c #6B4434",
"i  c #6D4935",
"p  c #734534",
"a  c #7B4437",
"s  c #744A35",
"d  c #7A4B36",
"f  c #73433A",
"g  c #7F453C",
"h  c #734D38",
"j  c #7B4E38",
"k  c #6F5139",
"l  c #76563C",
"z  c #7E523B",
"x  c #7C583F",
"c  c #7F5B40",
"v  c #80453C",
"b  c #824E39",
"n  c #8C4D3F",
"m  c #82543C",
"M  c #8B553C",
"N  c #85593F",
"B  c #8C593E",
"V  c #91553E",
"C  c #92583E",
"Z  c #865B40",
"A  c #8B5D42",
"S  c #935542",
"D  c #935B41",
"F  c #9B5D43",
"G  c #A45F44",
"H  c #A55E4A",
"J  c #8E6145",
"K  c #956246",
"L  c #9C6346",
"P  c #976548",
"I  c #9B6649",
"U  c #966D4D",
"Y  c #9E694A",
"T  c #9C714F",
"R  c #A46246",
"E  c #A96447",
"W  c #A46549",
"Q  c #AB6649",
"!  c #A36B4C",
"~  c #AC6C4D",
"^  c #B3674A",
"/  c #B46C4D",
"(  c #BA6E4E",
")  c #A7714F",
"_  c #AB704F",
"`  c #B6704F",
"'  c #A67452",
"]  c #AC7250",
"[  c #AC7855",
"{  c #B47352",
"}  c #BB7452",
"|  c #B47A56",
" . c #BD7A56",
".. c #B47E59",
"X. c #BE7D58",
"o. c #C37553",
"O. c #C97755",
"+. c #C37C57",
"@. c #C47956",
"#. c #C87957",
"$. c #CB7956",
"%. c #C97A57",
"&. c #C97A56",
"*. c #C37C58",
"=. c #C17F5A",
"-. c #C47D59",
";. c #C37E59",
":. c #CA7B58",
">. c #C97C58",
",. c #CB7E59",
"<. c #C97F5A",
"1. c #CD7F5B",
"2. c #CC7E59",
"3. c #CA7E59",
"4. c #D07F59",
"5. c #B58059",
"6. c #BC815B",
"7. c #B9835C",
"8. c #BB855D",
"9. c #BB865E",
"0. c #BC815B",
"q. c #C3815B",
"w. c #C4815B",
"e. c #C7805B",
"r. c #C7805A",
"t. c #C48059",
"y. c #C2865E",
"u. c #C7865D",
"i. c #C5835C",
"p. c #CB815A",
"a. c #CC805B",
"s. c #CD825B",
"d. c #CF825B",
"f. c #C8825C",
"g. c #CC825C",
"h. c #CF835D",
"j. c #CE825C",
"k. c #CF875D",
"l. c #CF875F",
"z. c #CC835C",
"x. c #D1835D",
"c. c #D1855D",
"v. c #D0855E",
"b. c #D0855F",
"n. c #D3865F",
"m. c #D2855E",
"M. c #D3895F",
"N. c #C78860",
"B. c #CB8A61",
"V. c #D08760",
"C. c #D38660",
"Z. c #D28760",
"A. c #D38760",
"S. c #D18861",
"D. c #D48860",
"F. c #D58861",
"G. c #D48961",
"H. c #D58961",
"J. c #D58A61",
"K. c #D58B63",
"L. c #D68C63",
"P. c #D78D64",
"I. c #D58F65",
"U. c #D58B62",
"Y. c #D88F64",
"T. c #D88D64",
"R. c #D59267",
"E. c #D89065",
"W. c #D99066",
"Q. c #E0966A",
/* pixels */
"A h.{ N @.^ N  ./ m } ( m { v.m _ O.M ! o.D L @.F A v.` N @.Q m  ./ z } ` m { Z.N ~ #.M ! o.D I o./ ",
"A L.E N @.Q z t.} z } @.m X.2.m ] o.M ! x.D P #.! D L.E N +.Q m <.} z } #.m X.1.b ] o.M ! x.C I o. .",
"J E.R N +./ m ;.;.z } v.z y.>.m _ o.B ! D.L K v.~ J E.R B @./ N <.<.j } h.m q.*.m _ #.B ! M.P K ,.r.",
"J g.R N @.X.m +.g.z  .@.z  .o.m _ a.K L v.L K 2.W J a.R N @.X.x *.<.z  .+.z | #.m ~ a.K L v.L K @.} ",
"A #.E N ,. .z *.g.j  .( z } o.N ~ M.A L D.L P #.F K #.E N +. .z *.<.j  .` m { o.M ! M.D Y F.L L @./ ",
"z } M N ,. .z +. .j u.@.j Y ^ s _ v.D Y a.F I L.R z } M N g. .m *.} z N.#.j Y / s _ n.D Y 2.K P S./ ",
"k 9.U Z ,.+.z *.( m q.a.d U 7.l _ D.D ! $.F K T.R k 9.U N ,.+.z *.( z =.1.s T 7.l ~ D.A ! $.F K S.} ",
". % . i ,.{ N ~ F h q.v.9 o @ + { 2.A I ~ b P D.! o @ . i g.{ m _ G s q.x.9 X @ + { a.D P Q b L S.` ",
"4 S S Z S.Q z K M i i.a.p e H p | :.M Z F p P F.E 5 S S Z V.Q z K M i <.g.p r H p | #.M Z F s P v.} ",
"7 Q b Z E.` 1 @ X 3 @.} d m Q t 0.x.m + %   K #.R t Q b m P.} 1 % o 2 *.( s b Q y 0.h.M + @   L o./ ",
"J @.H Z P.Q m f w u +.o.m { o.b ..1.C z w 0 Y :.R K @.E Z E.Q m f w u *.o.m { o.M | <.S z e 5 Y o.` ",
"A #.R N L./ x ~ E z ~ E s ` o.m | x.M I / M K ` M A @.R N L./ z / E z ~ E s { o.m | V.M P / M P / W ",
"J j.R N g.Q m h.( m W F i X.@.m ] 2.M ' x.D A W j K j.R N g./ z j.( N Y F i X.#.m _ g.M ) a.F J F D ",
"J P.{ Z >./ m u.+.5 % * * N.h.A _ O.M ! D.F % - X A T.{ Z +./ m u.@.5 @ @ $ l.v.B ~ O.M ! L.C $ - * ",
"J P._ A Q D z u.+.j q 5 5 u.j.B Y W d ! K.F h 0 > J T._ A ~ C z u.+.z u , 5 u.f.A Y E s ! L.F h , w ",
"J U.R z 5.T l h. .m ! G h y.@.b U 5.Z ! P.D A W M K S.G z ..T l j. .z W R h q.@.b U 5.Z ! L.D J W W ",
"B g./ - * O 8 U.+.j +.@.z { #.d + * X ! T.C L n.R A g./ - - o 7 S. .z +.@.m { +.j + * o ! T.D L 4.` ",
"Z L.~ z f q h r.( z  .g.z  .v.B c e 5 _ 2.D P D.! B L.~ z f w h g./ z  .a.j X.v.M z e 9 _ #.C P V. .",
"A h.{ N ` Q N } r.N X.g.z { v.M W } M ! 2.! K T.R B h.{ N ` Q m } g.m X.a.z ` v.N ! } N ! 2.! K V.` ",
"N g.{ m v. .m  .B.m *.g.j { M.m _ F.A Y v.' D W.L A a.{ m M. .z +.B.N q.g.j { v.m ] D.S Y v._ K K.` ",
"J @.E N S.{ z } ^ z X.;.z ` o.M ] F.M Y o.V K D.F A ,.E m U.` z } ^ z X.,.z { o.M _ D.M Y o.C K V.} ",
"J @.R N g./ m E.B.J } ( m { } m ] x.M [ Q.! P #.F K @.R N g./ x R.B.Z  .( z { o.M _ g.M [ Q.' P o.^ ",
"A f./ N @.^ N l.*.N  .( z { k.M ~ o.M ' F.W P O.F J j._ B @.Q N l.*.Z } ( m { f.m ~ o.M ' n.! L o.^ ",
"A U.Q N +.Q z +./ z } o.z  .k.b ] o.M ! :.C P @.E J P.E N +.Q z +./ z } o.m  .j.m ~ o.M ! #.C K o. .",
"J E.G B +.^ z r.,.z } h.m y.>.b _ o.B ! M.L K a._ J W.R N @.^ m <.=.z } V.z y.,.m _ o.B Y D.L K ,.i.",
"J M.R Z @. .m +.;.z  .;.z X.@.m ~ 2.P L n.L K x.W A v.R Z @. .N *.<.z } ;.z X.@.m ~ 2.P L v.L K *. .",
"J ;.Q N ,.X.z *.f.z  .( z { o.M ~ M.A L n.L P @.F K @.E N ,. .z *.i.z } ( m { o.M ~ D.D Y D.L P o./ ",
"z / C m ,. .z *.+.j u.o.z W ^ s _ M.D W x.P I S.L m ( C m g. .z *.*.z u.#.j W ^ s _ v.D Y v.L L j.^ ",
"c B.T Z ;.X.z @.( z *.g.j ' l.x ~ D.D Y #.D K P.W c B.Y Z ;.+.z *.( j q.f.j ' N.x ~ D.D Y >.D K S.} ",
"o < + h ,. .m { R j q.v.9 # < $ { a.A I / M L L.W + < + l >. .m ` E j *.v.7 % & $ _ k.D L / M P S.} ",
": g a m j.Q Z W C h q.a.u 0 n q { @.B I W d I D.W 4 g a m u.E N ! C s q.j.u 0 S 9 | @.M P W d I S.} ",
"5 W m Z P.` 1 - @ 6 +.o.s d Q u 7.j.M @ ; O P :.R 9 W M Z E.( 1 * @ 6 +.o.d d ^ u 0.a.M @ : O P @./ ",
"Z @.F Z P.^ l 8 > q *.( m { } d ..1.C u , : I #.G A #.F Z P.Q l 7 > q *.( m { ( j | a.C u , : I o.` ",
"J @.E Z E.Q m W F z { ^ j { o.M | x.M K W m P } C J @.R N I.^ N W F j { / j { o.M ..a.C K W M P / ~ ",
"J ,.R N j./ m f.( Z ! F s X.o.b ] x.N ] 4.F P Q b J 2.R N j.^ m f.( Z ! F s  .o.b ] a.m _ 4.D P W F ",
"J P.~ A *./ m u.o.5 6 3 < u.g.M ] $.M ! F.D - 5 @ A W./ Z ,./ N h.+.7 3 3 < N.j.M _ #.C ! M.D - 5 3 ",
"J P.` N ~ C z u.*.s 4 = ; u.h.J Y Q d ! K.F 8 : % A T.{ Z / C j u.*.s 4 = : N.h.A Y Q d ! L.L 7 : > ",
"J L.R J 0.] N u.+.m D F s y.@.M ' 0.Z ! P.D A F b P L.G Z 7.' x N.o.N D F s u.@.m ' 0.Z ! L.D J S F ",
"J g.Q - 6 - t S.o.j +.o.z { @.d & 4 & ! P.D L x.G A ,.~ - 6 - y S.+.j ;.o.m { @.d - 6 $ ! T.D L 2.( ",
"Z S.~ h 0 > i u.{ z  .g.z  .a.M u , : _ 4.C K M.W A K.~ h 0 > i f.} j  .<.j  .V.M u , 3 _ a.C P u.} ",
"A v.] m E F m  .+.m X.f.z { Z.M P Q m ! #.! K M.W A Z.{ m Q L z  .+.m +.a.z { v.N P Q b ! #.! K h. .",
"A h.{ N F. .m  .I.m *.,.j { Z.Z ` F.C Y M.' K E.L A j.{ Z v.+.m o.B.N 0.g.z { M.M _ F.D W v.' K S.` ",
"A +.Q N S.{ z *.} z *.,.j { @.M _ L.m ! @.F K L.R A ,.E m B.` z  .} m *.,.j { @.m ] P.M ! O.F P h.} ",
"A @.E N h./ z o./ z  .} z { o.M _ c.M ! O.C L >.F A *.E Z h.` z o./ z  .( m { o.m _ x.M ! @.C L #./ ",
"A M.~ N @.^ m +.^ z  .( z { M.m _ o.B Y #.C P O.F A v.~ N #.Q m +./ z } ( m { M.m _ o.M Y @.C L } ( ",
"J L.R N +.Q z u.+.z } r.m 0.#.M _ o.M ! M.C P #.~ K L.E Z @.Q m r.+.z } +.m q.>.M _ o.M ! M.D P +.*.",
"J P.R B +./ m +.r.z } h.z y.>.m _ @.D Y M.L K c.~ J E.R A o.{ Z +.f.z } l.z y.+.b _ #.D Y M.L P ,.*.",
"J ,.E N ,.X.z +.r.z } o.m { } M ~ v.K W D.L K #.L J ,.R Z ;. .m +.i.z } o.m { o.m ~ v.K L M.L K #.} ",
"J @.E Z ,. .z ;.f.z *.( m { o.M ! n.A Y F.L I 2.F J @.Q N ,. .z +.r.z *.` m { o.M ! n.D Y Z.P L +./ ",
"i ~ d m r. .z +.} j u.+.j A E u / F.D Y :.D I L.E i ~ d m ,.X.z +.} z r.>.j A E u _ v.D Y ,.D L M.` "
};
