/* XPM */
static char *_84f401eb4894a6da779a041cee32f921vw5xsvG1XhApYK3[] = {
/* columns rows colors chars-per-pixel */
"50 50 220 2 ",
"   c None",
".  c #403751",
"X  c #433A55",
"o  c #453D5A",
"O  c #483F5A",
"+  c #48405B",
"@  c #4D4663",
"#  c #46446E",
"$  c #48466F",
"%  c #494569",
"&  c #544D69",
"*  c #534B67",
"=  c #59526F",
"-  c #494770",
";  c #4C4A73",
":  c #55537A",
">  c #5A5678",
",  c #625D7B",
"<  c #A54D38",
"1  c #AA5637",
"2  c #B45A39",
"3  c #9C6634",
"4  c #B7643A",
"5  c #A77636",
"6  c #BE733A",
"7  c #C66E39",
"8  c #C9753B",
"9  c #D47B37",
"0  c #9B4E4F",
"q  c #A8594B",
"w  c #B45A41",
"e  c #AC5E56",
"r  c #B25B53",
"t  c #AE694A",
"y  c #BE6343",
"u  c #BC654D",
"i  c #B6664A",
"p  c #AD6253",
"a  c #B66757",
"s  c #A85A67",
"d  c #AB5E72",
"f  c #AD6766",
"g  c #BA7565",
"h  c #AB6A7B",
"j  c #AD6774",
"k  c #B36E7F",
"l  c #B46A75",
"z  c #B67772",
"x  c #B66266",
"c  c #C46A44",
"v  c #CE7D43",
"b  c #C97948",
"n  c #D27D43",
"m  c #C67A57",
"M  c #D97F5D",
"N  c #A98539",
"B  c #AC9F3E",
"V  c #9C8631",
"C  c #D5853C",
"Z  c #CE843D",
"A  c #F58E26",
"S  c #F48F29",
"D  c #F5932B",
"F  c #F6942B",
"G  c #E68B38",
"H  c #EB9A3D",
"J  c #EC903F",
"K  c #F59D34",
"L  c #E9862D",
"P  c #F7A53A",
"I  c #EFA43F",
"U  c #A9A748",
"Y  c #AFA957",
"T  c #B88870",
"R  c #B8B668",
"E  c #BDB97C",
"W  c #CA8545",
"Q  c #D38541",
"!  c #D58A42",
"~  c #D98F4B",
"^  c #D58749",
"/  c #DA934B",
"(  c #DA9546",
")  c #C8835B",
"_  c #D68D56",
"`  c #DD9A52",
"'  c #D99357",
"]  c #C29549",
"[  c #E59748",
"{  c #E29A55",
"}  c #ECA449",
"|  c #F4AD45",
" . c #F4A943",
".. c #F9B547",
"X. c #FAB649",
"o. c #FBB848",
"O. c #FAB747",
"+. c #E2A25B",
"@. c #EAA958",
"#. c #FABC58",
"$. c #F5A75C",
"%. c #C78769",
"&. c #D49864",
"*. c #C38777",
"=. c #D69973",
"-. c #C89279",
";. c #F49E6C",
":. c #EA936B",
">. c #DEA57A",
",. c #CBAE75",
"<. c #E4A667",
"1. c #EDAB71",
"2. c #C6C77A",
"3. c #F5C071",
"4. c #5E5B82",
"5. c #615E85",
"6. c #646187",
"7. c #6D6A8E",
"8. c #6A6585",
"9. c #746F8E",
"0. c #74708F",
"q. c #706E92",
"w. c #757395",
"e. c #7C7A9B",
"r. c #7A7797",
"t. c #6F6D90",
"y. c #817F9F",
"u. c #817D97",
"i. c #B47281",
"p. c #BD7485",
"a. c #B37885",
"s. c #B77889",
"d. c #827FA1",
"f. c #C17687",
"g. c #C47A8A",
"h. c #CA7D8D",
"j. c #E6788E",
"k. c #86839D",
"l. c #BA899D",
"z. c #BA9294",
"x. c #BC8C84",
"c. c #BFB48E",
"v. c #8481A1",
"b. c #8B88A7",
"n. c #928FAC",
"m. c #9492AD",
"M. c #9E9BB9",
"N. c #9996B3",
"B. c #A19EBB",
"V. c #B49EB6",
"C. c #B194AA",
"Z. c #BEA7AB",
"A. c #ABA8BB",
"S. c #B6A6B7",
"D. c #C79587",
"F. c #D19D83",
"G. c #C78594",
"H. c #C49C98",
"J. c #C18B80",
"K. c #F38A90",
"L. c #D6A68A",
"P. c #CAA698",
"I. c #D8AB97",
"U. c #C8AE8F",
"Y. c #C09FA1",
"T. c #EA9DB6",
"R. c #C4A7AA",
"E. c #DABBAB",
"W. c #C7ADB2",
"Q. c #CBB4B2",
"!. c #C6B5B8",
"~. c #D6B7B9",
"^. c #D6ADB2",
"/. c #E7A6BB",
"(. c #E1B5B0",
"). c #E5B492",
"_. c #CBCC8F",
"`. c #D7CAB2",
"'. c #E8C8B7",
"]. c #E5C3AD",
"[. c #A9A6C2",
"{. c #ADAAC4",
"}. c #A7A3C0",
"|. c #B2AFCA",
" X c #B2ADC5",
".X c #B4B3C4",
"XX c #B4B1CB",
"oX c #B9B6CD",
"OX c #BCBACD",
"+X c #BBB9C7",
"@X c #BFBDD0",
"#X c #C6BDC6",
"$X c #D8BEC2",
"%X c #C0BED0",
"&X c #E4B5C3",
"*X c #E5BBC6",
"=X c #E2BFC8",
"-X c #C1C2CE",
";X c #CAC4CB",
":X c #DAC7C9",
">X c #C5C5D2",
",X c #CBCBD5",
"<X c #CDCFD9",
"1X c #C8C6D5",
"2X c #CFD0DA",
"3X c #D2D4DB",
"4X c #D9D5DB",
"5X c #E4CCC6",
"6X c #E9DAD8",
"7X c #E9D1C5",
"8X c #E7E4C9",
"9X c #EAE6D8",
"0X c #E0DEE2",
"qX c #EBE3E3",
"wX c #EEE8E6",
"eX c #EBE7E8",
"rX c #F3EEEC",
"tX c #F0E7E3",
"yX c #F4F1EE",
"uX c #F5F2F1",
/* pixels */
"                                                                                                    ",
"                                                                                                    ",
"                                                                                                    ",
"                                                                                                    ",
"                                                                                                    ",
"                                                                                                    ",
"                                                                                                    ",
"                                ^ ! 9                                                               ",
"                            [ 1.1.X.K [ ].eX4X-X                                                    ",
"                          [ X.#.#.P D A { 6XyXeX4X#X                                                ",
"                        D P P P K F A D L ].yXyXrXrX0X<X1X>X-X#X+XA.                                ",
"                      n F P P F A A A A [ 6XyXrXtXuXyX0XoXoX@X>X1X,X,XOX+X                          ",
"                    .X&.A A F F A A A J '.uXtX7X5XqXtXrX1X|.|.|.XXXX@X,X<X1X.X                      ",
"                OX,X+XL. .F F K F S [ '.5XE.>.[ ~ F.5X6X1X|.|.|.XXXX|.XXOX@X1X-X+X                  ",
"              ,X<XOX;X:X>.} } [ <.).'.I.! } ..o.o.@.L.P.Z.U.H.U.S.XX|.XXOXXXXXOX1X1X.X              ",
"            ,X<XoXOXeXrX6X7X7X7XtXuXE.G ..o.O.O.o.o.} b v Q C C &.z.A.XX{.|.XXXXXX>X1X.X            ",
"          1X<XoX+X3XyXyXqXyXyXyXuXwX=.} O.| o... .[ | _ n Q C 7 4 a i.l.l.l.C.A.|.XX1X,X            ",
"        >X<XoX|.,XtX8X8XyXrXyXyXuX5X_ [ C | ..P | | K.j.c n 8 q l g.f.h.h.h.h.g.V.|.XX1X>X          ",
"      {.<X%XXX#XqX8X2._.rXyXyXyXqXI.:.K.;.O.C L P O.$.;.c 7 w j G.g.g.f.f.h.G.h.h.V.|.oX<X.X        ",
"      +X,XoXoX#XqX9XR _.8X`.6X6XF.{ ;.K.;.O.H H | O.o.O.6 < < x p.i.h h h k p.f.g.l.|.|.>X,X        ",
"      1X1X|.|.:X:X`.R E 2.Y `.P.9 | O. .| o.o.o.O.O.O.O.b q 1 r s h a.i.h h k f.g.g.V.|.oX,XA.      ",
"      >X@X|. X^.`.R _.2.R U.Q.m 9 } O... .O.o.o.O.O.O.H c 2 2 q l G.G.G.h.p.i.p.f.f.C.|.XX,X.X      ",
"      >XoX|.z.g E Y R U U T t 1 9 L I ..H H | O.#.@.7 1 < 8 i l h.G.h.h.h.h.h.g.g.l z  XXX,XA.      ",
"      >XoX|.T W N N U N V V 5 < 1 1 2 4 7 9 / =.%.p q t i 7 0 f.h.h.g.g.g.h.h.h.p.e u V.XX1X.X      ",
"      -XOX|.*.b 5 N B t N N 5 3 5 N 1 < y 2 < < < W <.&.( W q d k h k i.i.f.h.h.g.e y S.oX1X.X      ",
"      -XXX Xz y b ] ] ' W 1 1 2 6 4 4 / ).L.J.r 7 ! ~ ^ ^ Z 4 0 s d j h h h f.h.g.e u S.XX1X        ",
"      .X%X{.z.9 ^ ` @.{ W 2 < 7 Z 4 L.'.~.*X&X5XI.m ) D.E.].E.&.q r x d j l %.) m c a A..X.X        ",
"        >X+XA.m Q ^ n Q W ^ _ ' { &.7X*X*X/.T.&X:X'.~.*X&X&X*X5X~.r 1 u M <.{ / 9 7 z  XA.8.        ",
"        v.>XOXx.c c 9 / +.+.<.<.{ +.>.I.:X/./.~.:X*X/.T.&X:X&X&X$Xf 1 y ~ ` / n b m Z.A.8.%         ",
"        ; v.OX1XR.-.' ` ' ' / { { / ` { &.L.F.D.~.&XT./.&X&X/.W.H.r 2 c ! ^ u g H.;XA.8.o           ",
"        $ ; e.A.,X<XQ.-.u y b ~ ` / ( C C ! Q Q H.Q.^.W.Q.R.Z.z.a w w 7 7 m z.,X>XA.8.X o           ",
"          $ $ 4.m.+X<X,XW.x.g u b ! C ! ! C ( C b *.H.R.H.x.z r w r m *.P.;X2X.Xk., X X             ",
"            $ $ 6.t.m.OX<X<X;X!.Z.D.z %.^ Q Q 9 8 7 t p q q f T Y.W.#X<X1X.Xn., & * . o             ",
"            - - : 6.; 6.b.{.>X2X3X<X,X;X!.Q.Q.Q.!.W.W.Z.Z.#X,X<X2X>X.XM.u., @ . * + +               ",
"              e.4.8.; $ # 4.e.B.oX1X1X<X2X3X2X2X3X2X2X3X2X2X-XA.m.r.8.= O . . + @ + =               ",
"                M.N.6.$ # - 4.4.5.e.M.}.+XOX@X@X@X@X@XoX{.N.0.> * + * + . . . = = ,                 ",
"                  {.[.v.4.- : 4.# - ; 4.7.q.q.r.e.q.q.6.: - o . . . & O . X & w.w.                  ",
"                  M.oX@X{.v.4.q.- # - - # # # 4.: # # # # % X . . + & + & 8.e.w.                    ",
"                      XX<X1X|.B.w.: ; - # # # 4.: # # # o o X X + = 8.0.k.v.w.                      ",
"                        OX<X<XoX|.M.N.e.w.w.w.d.e.w.w.t.4.7.0.0.0.k.k.v.v.0.                        ",
"                          |.>X1XXXXXXX|.XXXXXXXXXXXX}.b.v.v.v.v.v.v.y.e.t.                          ",
"                            M.{.|.|.|.|.|.|.|.|.|.[.n.b.v.v.v.v.v.e.7.                              ",
"                                B.[.{.|.|.|.|.|.[.n.v.v.v.y.e.e.q.                                  ",
"                                      M.}.{.{.N.v.e.e.e.w.7.6.                                      ",
"                                                                                                    ",
"                                                                                                    ",
"                                                                                                    ",
"                                                                                                    ",
"                                                                                                    ",
"                                                                                                    "
};
