/* XPM */
static char *baf8ce209b3e46fdc1177090fda34480kFkF4CFHsqU6pNE4[] = {
/* columns rows colors chars-per-pixel */
"50 50 246 2 ",
"   c #270F05",
".  c #2C160D",
"X  c #281309",
"o  c #34160B",
"O  c #36190D",
"+  c #39190E",
"@  c #341206",
"#  c #2C1710",
"$  c #2D1C14",
"%  c #271D1A",
"&  c #331B13",
"*  c #3B1E12",
"=  c #351E19",
"-  c #3B1F19",
";  c #341713",
":  c #29231B",
">  c #3C2216",
",  c #35231B",
"<  c #3B241B",
"1  c #3D291D",
"2  c #342515",
"3  c #1F1C25",
"4  c #1E2625",
"5  c #242B2B",
"6  c #2D2B2C",
"7  c #2B2724",
"8  c #3B2622",
"9  c #342A27",
"0  c #3D2A22",
"q  c #322D2C",
"w  c #362A27",
"e  c #2D322B",
"r  c #34322C",
"t  c #3B342C",
"y  c #38392A",
"u  c #2C2E32",
"i  c #382D33",
"p  c #2C3438",
"a  c #343332",
"s  c #3A3532",
"d  c #3C3C3C",
"f  c #383A38",
"g  c #1E0B05",
"h  c #421F17",
"j  c #422314",
"k  c #41251D",
"l  c #442A1D",
"z  c #4B2C1B",
"x  c #442915",
"c  c #48331E",
"v  c #54321E",
"b  c #5A351E",
"n  c #532A13",
"m  c #432621",
"M  c #432B23",
"N  c #4A2D22",
"B  c #442E2A",
"V  c #443225",
"C  c #4A3324",
"Z  c #4E3925",
"A  c #44322A",
"S  c #4B352A",
"D  c #4B392D",
"F  c #543423",
"G  c #5A3624",
"H  c #5C3A24",
"J  c #543A2C",
"K  c #5C3B2A",
"L  c #563728",
"P  c #4B3D35",
"I  c #413D3A",
"U  c #443A33",
"Y  c #593D34",
"T  c #422D32",
"R  c #633C25",
"E  c #693D23",
"W  c #643E2B",
"Q  c #6B3E29",
"!  c #613721",
"~  c #723B25",
"^  c #663E32",
"/  c #354337",
"(  c #5B412C",
")  c #43423C",
"_  c #494239",
"`  c #59463B",
"'  c #584436",
"]  c #544933",
"[  c #6D4124",
"{  c #6C442C",
"}  c #64422B",
"|  c #734525",
" . c #74452C",
".. c #75492D",
"X. c #7B4B2D",
"o. c #784528",
"O. c #7B502E",
"+. c #644334",
"@. c #6C4632",
"#. c #644933",
"$. c #6D4A34",
"%. c #694C3A",
"&. c #714731",
"*. c #744B32",
"=. c #7A4D33",
"-. c #754D39",
";. c #7B4E39",
":. c #7C5234",
">. c #75533C",
",. c #7C533B",
"<. c #785538",
"1. c #6B533E",
"2. c #70401C",
"3. c #3A3E41",
"4. c #2F3A40",
"5. c #443E46",
"6. c #3B4447",
"7. c #444344",
"8. c #4B4543",
"9. c #474A4A",
"0. c #524943",
"q. c #58534C",
"w. c #565354",
"e. c #464A53",
"r. c #694E46",
"t. c #6A5342",
"y. c #6D5A4C",
"u. c #675649",
"i. c #7C5A43",
"p. c #725B4D",
"a. c #775847",
"s. c #695C54",
"d. c #735C51",
"f. c #7B614B",
"g. c #776457",
"h. c #6F6252",
"j. c #756A62",
"k. c #7D746B",
"l. c #7D7C77",
"z. c #83482C",
"x. c #815435",
"c. c #82553B",
"v. c #855A3D",
"b. c #8A5C3D",
"n. c #895739",
"m. c #895436",
"M. c #97613C",
"N. c #8E603F",
"B. c #845B42",
"V. c #8B5D43",
"C. c #865B46",
"Z. c #935E45",
"A. c #8D6144",
"S. c #85624B",
"D. c #8C644B",
"F. c #8D694B",
"G. c #83674B",
"H. c #926345",
"J. c #93654A",
"K. c #9A664E",
"L. c #956A4C",
"P. c #9A6C4C",
"I. c #986845",
"U. c #9B724C",
"Y. c #856353",
"T. c #8D6B53",
"R. c #806D5F",
"E. c #876754",
"W. c #946D52",
"Q. c #9A6D52",
"!. c #986857",
"~. c #8C725A",
"^. c #9C7353",
"/. c #9B735B",
"(. c #987559",
"). c #A46D48",
"_. c #A27554",
"`. c #A47956",
"'. c #A2765A",
"]. c #A57A5B",
"[. c #A97C5D",
"{. c #AB7958",
"}. c #B37752",
"|. c #A87352",
" X c #826E60",
".X c #837263",
"XX c #8C7A6A",
"oX c #88776B",
"OX c #927D6E",
"+X c #9A7B66",
"@X c #887C73",
"#X c #947E71",
"$X c #9D7A76",
"%X c #9E6E64",
"&X c #A87D65",
"*X c #AB815E",
"=X c #B5855C",
"-X c #8E8178",
";X c #938473",
":X c #95847A",
">X c #99836D",
",X c #AD8363",
"<X c #A98469",
"1X c #B18564",
"2X c #B38966",
"3X c #B3866A",
"4X c #B48A6A",
"5X c #B98D6C",
"6X c #BC876A",
"7X c #AA8A75",
"8X c #B79075",
"9X c #C2875C",
"0X c #C39473",
"qX c #C98C6E",
"wX c #989089",
"eX c #A1968D",
"rX c #A59B92",
"tX c #B9AFA6",
"yX c #B7ABA3",
"uX c #BEB5AB",
"iX c #BAB0A7",
"pX c #BFBAB6",
"aX c #AEA199",
"sX c #C4BCB2",
"dX c #CABFB5",
"fX c #C0B5AB",
"gX c #CDC4BC",
"hX c #D0C7BE",
"jX c #DBCCC6",
"kX c #DBCEC8",
"lX c #D4C8C4",
"zX c #D9D2CC",
"xX c #DBD4D1",
"cX c #E3DBD7",
"vX c #E1D7CE",
"bX c #E9E4DB",
"nX c #ECEBEB",
"mX c #E9E6E5",
"MX c #F3EBED",
"NX c #F1ECE5",
"BX c #F6F1EB",
"VX c #FCF4ED",
"CX c #F6EDF0",
"ZX c #FBF9F6",
"AX c #FEFCF9",
"SX c #F6F4F3",
/* pixels */
"AXmXzXxXcXmXmXbXmXnXnXnXMXSXSXnXCXCXMXMXCXCXMXMXNXBXMXBXVXBXNXBXCXnXCXnXnXnXmXnXNXbXbXNXNXxXcXxXcXAX",
"AXj.0 ` j.@XoXXXXXOX#X#XOX#X#XXX;X;X;X:X;X:X;X;X:X:X:X-X:X:X:X:X>X;X:XOX:XXX#X#X-X-X@X@X@Xg.u._ k.CX",
"AXs.P C M 0 D J F F L F C F F F C c C C C c Z C J C B C C S D C F z F N F N F N M S S S C V S ' j.SX",
"ZX-XR.l   . - . $ & , = , < 8 , k < k M - m M m M x N N l N N k B m N M M M C M C N > > o X 2 h.rXAX",
"AXwX.X< & % . O . ; ; = - < - < - h k k k - x < > * j * * * j * & & > < - - - 2 h + o ; X ; < h.eXAX",
"SXeXoXM 0 # g A b b G H W G H H b H b H } R b v W ^ K G K W H K Q Q R { &.{ G E [ @.Y N # 8 0 u.rXSX",
"ZXtX#X< < & . J x.=. .=.=.*. .o.v.A.:.x.L.J.:...,.V.c.*.B.B.&.&.A.b.X.A.P.H.| O.v.B.>.K   k A d.sXZX",
"BXiX>XN < & @ C i.-.&.&.&.&.&.{ A.Z.;.x.Q.K. .~ b.P.V.m.Q.I.X.o.T.D.<.F./.W.} *.P.n. .H @ N C p.yXAX",
"ZXiX;XM , = - F Q.*.*...X.X.o.{ M.M.~ N.].J.-.$.v.,XI.b.).K.c.Q ` A y f u.a.[ X./.v.B.W . 8 S a.iXAX",
"ZXuX;Xl - - * K J.{ { ..V.H.:.+.S./.v./.&XY.C V _ r.#.E.Z.E.i.@.y y.Y.y.5./ V <.P.I.H.$.@ < V p.iXAX",
"ZXuX>XM < < < } A...<.&.J.L.a.+.F.3XL.<X&XE.z v u.V x W.^.K.z.[ g.3X}.a.6 p N z._.`.F.{ o , M g.tXAX",
"ZXuX>Xl k < > -.N.:.B.&.J.J.-.+.f.~.C.~.E.Y.+.1.s.A C i.D.i.>.} J.^.<.#.r i N &.E.E.a.J 9 w B p.tXAX",
"ZXuX#Xl < - j ,.H.:.C.@.P.Q.$.L 9.7.d 8.I ) 7.7.p 3.w.I d d 7.6.d / a 3.5.5.3./ f y t 9 s 6 A y.iXAX",
"ZXuXOXx m - z S.A.*.F.=.Q.J.-.K P t U _ t w w t a 7 s U P i a 6 U I f r e e s 8 f _ U t r : A y.tXAX",
"ZXuX@Xx m h z W.A...W.,.L.J.=.@.^.^.].,X(.D.{ a..XM G (.'.L.*.[ D.&X,XT.y 2 K m.XX<XE.r.< : A p.tXAX",
"ZXpXOXl M - z W.].*.W.=.I.I.c.@.A.[.'.,X^.B.n -.s.2 J <XJ.P.z.| D.=X=X0Xy.s C <.).9XI.,.o < S p.tXAX",
"ZXsXXXl m m z W.[.O.^.=.H.Q.=.*.D.L.3X1XL.S.H F Z ( ( `.U.J.;. ._ t.-Xk.8.t C i.P.*X^.:.o M M d.tXAX",
"ZXsXXXz m h z T.,Xv.[.v.J.Q. .*.J.L.1X1XK.F.@.a.7X(.*.*XP.I.=.Q a.#.Z 1 M F H :.L.,X].>.o M B y.tXAX",
"ZXsXXXl m m z D.1XH.,XA.D.L.*.*.D.P.{._.H.b.Q D.8XW.| _.Q.J.,.Q L.*X<X~.S.^ { N.L.1X&XB.o m B y.tXAX",
"SXsXXXl m m x S.2XL.3XH.H.L.=.*.L.{.2X_.L.v.E D.4XL.O.`._.J.,.[ b.=X2X4X/.{ Q n.L.5X3Xc.+ M A y.tXAX",
"ZXsXoXl m N h B.2XU.,XH.A.L.=.=.U.1X5X].I.H.[ J.0X`.O.^._.Z.*.{ A.*XU.[.(.&.&.v.W.5X3X:.& M S y.tXAX",
"ZXsXXXl N M j ,.2X'.,XL.A.L.=.&.^.1X4X^.H.A.[ A.2X_.X.H.'.J.*.{ ,.].*X*XJ.W { v.^.5X4X-.+ m S y.tXAX",
"ZXsXXXj N m + <.,X].1XQ.A.K.=. .[.3X5X'.L.V.[ A.5X1Xx.J.&XL. .| S.U.'.`.H.&.=.S.^.4X1X*.+ < A p.iXZX",
"ZXsXXXx M N j <.*X].1X^.A.W.;.X.U.[.4X&XL.v.E A.3X3Xc.B.'.D.*.,.D.U._.|.Z. ...<.^.2X4X<.* > S y.tXAX",
"VXdX.Xx x 8 8 0.e.a ] ].I.^.1.0.e.s %.,XI.K.^ 0.y.7XU.x.,XW.*.O.L.U.^.^.v.$.*.A.^.5X,X$.k < A y.tXAX",
"ZXsX.XP P U w 0.8.q s u.t.t._ 9.) : ) h.t.` B _ V ~.^.N.[.A...v.(.*XL.*XA.[ =.A.^.5X].$.* m A p.tXAX",
"ZXsXk.P 8.d i e.U 7 a 6.7.6 u 6._ r p 6.9.i 5 f V g.].I.].F.*.B.].,XN.[.F.Q *.D.U.4X^.@.+ l V p.tXAX",
"AXsXk.t s q 5 6.d u p u r : p e./ 5 5 5 6 6 a 3.A f.(.U.`.P.&.,.].`.U.*XF.{ =.A.^.1XL.&.o m M y.yXAX",
"VXdX.X1 < 7 % d p 4 6 ` K ( _ d 4.5 r u.K J T 9 A a.^.P.`.P.&.i.'.P.[.1Xc.&.=.A.^.1XA.$.+ k M d.tXAX",
"ZXgX~.< M M & 1 4 : D (.L.K.r., 3 % S 3X).K.;.Y a.W.I.L.'.W. .;.].P.2X2X,.&.=.K._.1XF.{ * k M y.tXAX",
"ZXdX.Xl N N > l 1.i.i./.P.).B.L a.i.<.4XI.Z. .[ <X<XM.Z.&X/.&...'._.1X[.V. .=.].[.*XF.} * < M p.tXAX",
"AXsX.Xl N l > ( =X0X4X&XW.D.c. .M.*X^.7XW.Q.X.2.U.1XI.K.&XW.{ .._.1X`.1X!.Q  .,X*X*XH.} > > M y.tXAX",
"ZXdXj.N m N * K '.[.2X^.L.K.B.{ C.&XA.2XU.A.,.( P.5Xx.I.5XL.{ %.}._.>X7X!.~ o.1X`.{.H.! h 8 1 y.tXAX",
"ZXdXR.l k M * G P.].,X^.I.K.V.{ V.|.x.=X).I.c.Q +X8Xc.I.6X_.=.~ w.` 0 ] q.r.c.}.~.(.Y.+.* < > d.yXAX",
"ZXdXR.z k N * G P.].,X].J.J.V.{ C./...3X/.D.K S _ u.#.W.5XF.o. .5 ] W.f.f r #.=XF.U.v.^ ; 8 , d.tXAX",
"ZXdXR.M m m * L ^.[.].^.L.K.F.@.>.&X<.].<XG.l J u.Z x T.8XI...=.W.b.qX/.t r ' qXM.}.M.E * 8 8 y.tXAX",
"ZXdXR.z k M + G ^.U.^.[.K.K.T.+.i./.i.T.+Xd.%.t.u.C F Y.7XY.^ ^ W.v.%Xr.7 7 _ +Xi.T.G.Y M : 8 y.tXAX",
"ZXdXj.l k l + F _.L.W.].Q.J.V.G 8.8._ 8.` d q.7.6.7.9.I 5.5.9.w.) 9.p 4.e.) _ _ 6.f d a f % , a.tXAX",
"ZXdXg.l < k + F [.J.F.[.Q.V.S.K u s q a f a s 6 u 4 y r _ t : 7 r s e e p 7 t 1 f a t 9 a 7 , t.yXAX",
"ZXdX.Xl k k + F [.J.B.'.J.B.W.>.{ J.=.v.].L.E  .s.1 Z B.3XZ.E =.!.z.*XT.w i a.<Xo.H.S.W , % 8 d.tXAX",
"ZXhXg.M j l ; v Q.].x.L.H.:.V.c.| Q.x.b.5XW.} %.w.A l f.&X!. .c.~.v.6X8Xq.y ` {.,.A.Q.W O 8 < p.iXZX",
"ZXhXg.> ; M & v ^._.*.L.D.X.V.V.@.Q.:.X.<XW.H z V C ( B.J.V. .c.Y H /.>X0.9 +.!.,.b.L.{ * , 2 p.tXZX",
"AXgX X- X C * F Q.^.*.P.D.{ :.v.} W.:.[ Q.(.-.@.G.a.&.=... . .C.g.c ( V 9 8 %.Z.X.n.H.} > < > p.iXZX",
"AXyX.X> o B o S b.x.=.Q.H.| E *.{ J.:.[ b.L.,.*.Q.c.o.o.o.=.| ,.C.#.G.d.a.^ ;.O.[ b.L.W O < w u.yXAX",
"AXrXg.1 . M . L X.[ x.L.V.=.n o.{ c.X...H.P.=.| =.:.=.| E =.*.@.o.=./.P.V.~ o.| Q B.J.W & , 0 u.rXAX",
"AXeXg.1 $ , & J c.{ v.V.c.=.n [  .@...&.v.C.X. .=.&.{ R b $.@.-.z.X.H.A.V.o.=.[ @.*.a.} > $ , y.eXAX",
"AXrXg.j # = & M +.K K +.L L + z W G K F v z z F G j z L v F v H Q Q @.W b v W ^ L G F N 2 # , u.-XAX",
"AXrXg.> X # . O X 2   $ o . $ & k o * - < M > < k * l l O j x j 2 < h m < < < ; < j * .   : < r.@XZX",
"VXk.P 9 # # , , < < < < < 2 < 1 1 1 l 1 1 m l < l l l 1 l 1 l l M 1 l 1 1 < 1 < < , & $ X # t ` l.nX",
"AXzXcXzXgXhXkXzXkXkXkXkXkXzXkXkXjXhXjXkXkXkXkXkXjXjXjXjXjXkXjXjXkXkXkXkXjXjXkXkXjXlXlXkXlXlXzXxXxXAX"
};
