/* XPM */
static char *_1f34d543324447f9628cac9e3992f20YpzoOaI37dzqv6Z2[] = {
/* columns rows colors chars-per-pixel */
"50 50 212 2 ",
"   c None",
".  c #120F0F",
"X  c #0F1215",
"o  c #151414",
"O  c #191616",
"+  c #161817",
"@  c #1C1915",
"#  c #161619",
"$  c #191619",
"%  c #161A1C",
"&  c #1A1A1B",
"*  c #10100F",
"=  c #221C16",
"-  c #221D1A",
";  c #291E1A",
":  c #2A1D16",
">  c #1F211E",
",  c #26221D",
"<  c #2B241B",
"1  c #2C2617",
"2  c #3E2C1B",
"3  c #352919",
"4  c #3A3415",
"5  c #3A321D",
"6  c #3F3814",
"7  c #161C22",
"8  c #1C1C23",
"9  c #201F20",
"0  c #1D2229",
"q  c #1F2124",
"w  c #222123",
"e  c #2C2522",
"r  c #2C2924",
"t  c #22242B",
"y  c #2D2B2A",
"u  c #332A22",
"i  c #362E28",
"p  c #3C3429",
"a  c #36322B",
"s  c #242934",
"d  c #292E3C",
"f  c #262A36",
"g  c #2A303D",
"h  c #3E3C39",
"j  c #452E1A",
"k  c #433A15",
"l  c #433A1D",
"z  c #4A381A",
"x  c #53361A",
"c  c #5C3C1C",
"v  c #543819",
"b  c #443B2E",
"n  c #453829",
"m  c #5A3E24",
"M  c #483E33",
"N  c #4D441B",
"B  c #544916",
"V  c #65421C",
"C  c #6C461D",
"Z  c #744B1D",
"A  c #7A4D1E",
"S  c #665716",
"D  c #6F6214",
"F  c #786616",
"G  c #4E4329",
"H  c #564A25",
"J  c #4E4232",
"K  c #524434",
"L  c #5B4A35",
"P  c #564B37",
"I  c #5F513C",
"U  c #674421",
"Y  c #7F5322",
"T  c #65553C",
"R  c #6D5124",
"E  c #766526",
"W  c #7D7027",
"Q  c #2C3343",
"!  c #2E364A",
"~  c #2E384A",
"^  c #30394D",
"/  c #313C53",
"(  c #16405B",
")  c #34405A",
"_  c #334057",
"`  c #1E577B",
"'  c #2E5D7E",
"]  c #464542",
"[  c #4B4A46",
"{  c #524F4C",
"}  c #53524E",
"|  c #595855",
" . c #6A5A41",
".. c #725D43",
"X. c #605F5C",
"o. c #7C654A",
"O. c #766746",
"+. c #63625E",
"@. c #7D7454",
"#. c #696863",
"$. c #7B7976",
"%. c #8B591F",
"&. c #927D1D",
"*. c #827118",
"=. c #875624",
"-. c #965F22",
";. c #8D782C",
":. c #996D27",
">. c #BB752A",
",. c #B37431",
"<. c #B06F2F",
"1. c #CD7D25",
"2. c #C57927",
"3. c #826B4B",
"4. c #8D7352",
"5. c #937A53",
"6. c #977C58",
"7. c #807F7A",
"8. c #998418",
"9. c #AB9316",
"0. c #BDA415",
"q. c #998431",
"w. c #9C862F",
"e. c #AB932B",
"r. c #B99D2E",
"t. c #A58D33",
"y. c #B99D31",
"u. c #B69D32",
"i. c #A89230",
"p. c #BAA229",
"a. c #CBAE16",
"s. c #C5AA17",
"d. c #D9BB17",
"f. c #CFB011",
"g. c #E1BF12",
"h. c #D98526",
"j. c #E68C27",
"k. c #EE9128",
"l. c #F59426",
"z. c #F89424",
"x. c #F59428",
"c. c #F18F26",
"v. c #C8A925",
"b. c #CEB022",
"n. c #E9C90E",
"m. c #F1CE0D",
"M. c #FCD807",
"N. c #F5D30D",
"B. c #FBD70B",
"V. c #FCD808",
"C. c #FDD707",
"Z. c #E5C316",
"A. c #E6C517",
"S. c #F2CF10",
"D. c #F8D716",
"F. c #FADB27",
"G. c #9D8359",
"H. c #8D835A",
"J. c #A6895C",
"K. c #A19042",
"L. c #84837D",
"P. c #A88961",
"I. c #B39463",
"U. c #B79569",
"Y. c #BB9969",
"T. c #B09067",
"R. c #C59D6B",
"E. c #CAA46C",
"W. c #D5AD73",
"Q. c #D4AE75",
"!. c #E5BB78",
"~. c #FBDE47",
"^. c #ECD55B",
"/. c #FBE151",
"(. c #DCC86E",
"). c #DAC979",
"_. c #EBC67B",
"`. c #F6C87E",
"'. c #E6D163",
"]. c #FAE36B",
"[. c #21699B",
"{. c #2A77AA",
"}. c #3684BC",
"|. c #5683A3",
" X c #7B9CAE",
".X c #6E838E",
"XX c #72A8CC",
"oX c #5698C5",
"OX c #888786",
"+X c #93928B",
"@X c #9A9B98",
"#X c #A3A39B",
"$X c #96AAB5",
"%X c #B3B2AD",
"&X c #B2B3B0",
"*X c #FDCD81",
"=X c #F1C481",
"-X c #EFC380",
";X c #C1C2BD",
":X c #91BAD3",
">X c #99C2DB",
",X c #A3C4D8",
"<X c #CBCAC7",
"1X c #D2D1CC",
"2X c #DAD9D5",
"3X c #D0CECA",
"4X c #E3E2DE",
"5X c #CBDCE5",
"6X c #D6E4EA",
"7X c #F5F4EF",
"8X c #FBFAF7",
"9X c #E7ECEB",
/* pixels */
"                                                      %                                             ",
"                                                    % @                                             ",
"                                  & $             @ B p.3                                           ",
"                                  + B 1         & n s.D.K.q           7 %                           ",
"                                  < a.a.4 $   % 6 r.N.V.F.O.&     + r 4.y                           ",
"                    7 %           N d.M.n.S + 1 t.Z.V.V.V.'.P + > O.).).p                           ",
"                    7 6 B , %   % E Z.M.C.B.9.i.b.B.V.V.V.F.).H.).~.D.(.p                           ",
"                      k A.0.F 4 $ ;.Z.B.C.C.B.S.S.V.V.V.V.V././.D.M.V.'.J                           ",
"                      @ v.V.V.D.9.v.A.V.V.V.V.V.V.V.V.V.M.V.B.B.M.V.C.'.h %       %                 ",
"                      O w.A.V.V.C.V.V.V.V.M.V.M.V.V.V.V.V.V.V.V.B.V.V.^.P < a J p &                 ",
"                      & W v.B.C.V.C.V.V.M.V.V.V.V.V.V.V.V.V.V.V.V.V.B./.].~.F.B.D +                 ",
"                7 & $ O R y.Z.C.V.V.V.C.M.V.V.M.V.V.V.V.M.V.V.V.V.V.B.V.V.V.M.m.4                   ",
"            % @ H E ;.i.u.y.v.B.C.V.V.V.V.V.V.V.M.M.M.M.V.M.V.V.V.V.M.V.C.M.B.s.&                   ",
"              @ E r.y.y.y.y.b.B.V.V.V.V.V.V.V.V.V.M.M.M.V.V.M.V.C.V.V.V.C.M.B.F &                   ",
"                = t.y.r.y.r.d.B.V.M.V.C.C.C.M.B.B.N.N.N.N.B.B.V.V.V.M.V.V.V.m.B 1 & 7               ",
"                # l y.u.y.y.v.A.V.V.N.A.a.9.*.S B k 6 4 k N B D 8.0.Z.N.V.B.V.m.f.8.N + 8           ",
"              + < ;.r.y.y.y.y.e.&.S 6 1 q 8 O + r a a y y y w & o O : k D 9.S.C.V.a.k %             ",
"          7 + H q.r.y.y.y.i.E 5 & s Q ~ ^ g & h %X<X#X+X#.] [ +.%XOX- & t 1 B f.s.k @               ",
"            + 5 ;.r.r.r.q.3 & s ~ _ / ) ) d [ +.&X4X1X+X[ #.#.#X4X1X] t ^ / t N k 7                 ",
"              % @ H u.E O 0 Q ! ^ ) ) ) / s { $.#X3X2X| y | #.#X<X4X3XX.Q / Q < S &                 ",
"                7 k R + f ! ! ! / _ ) ) ) f i [ 7.OX#X| } | L.+X#X4X#.w Q ) ^ & &.1                 ",
"                % G + g ! ! ! ! ^ _ ) ) ) d @ $ $ # # $ $ $ O @ & a 9 9 Q / / 8 5 < 7               ",
"                @ G q ~ ! ! Q g d s 8 & % $ @ r i n b b p p i 3 e - $ $ f Q / q & % &               ",
"              % + + 7 ~ Q f q + r J J - @ w , p  .5.U.Y.Y.U.U.P.6.3.M - $ $ 8 @                     ",
"                    @ 8 & < H 1 5.P.i } 1X1X&X@X} w 5.=X!.=X-X!.W.p < J } t p @                     ",
"                  7 e e + z ;.< P...M 4X8X:X}.XX6X$.m `.*X*X*X*XG.y 4X,X:XOX- @                     ",
"                  7 o.J.u = i i Y.M .X8X6X{.( $X:X;Xu !.*X*X*X*XK +.6X{. X$X. @                     ",
"                  % o.Y.O.O $ L R.K OX8X9X}.` {.,X;Xu !.*X*X*X*Xn $.5X[.[.|.@ O                     ",
"                  8 K U.U.4.i o.E.3.M 2X8X5XXX:X7X$.J *X*X*X*X*XT | 8XXXoX.X$ #                     ",
"                    - T.U.P...G.R.!.n } <X9X7X7X+X, J.*X*X*X*X*XI.& 1X4X;Xh - #                     ",
"                    7 i 6.M K U.R.=X!.I O * 9 @ < J.*X*X=XY.W.*X*X... o @ M <                       ",
"                      7 # # & K T.!.*XE.G.T n Y.`.`.*X*X*X*X*X*X*X`.I.n L L &                       ",
"                              @ , I J.J.J.4.3.`.*X`.*X*X*X*X*X`.*X`.J.T p &                         ",
"                                  & $ < < = T P.Y.E.E.W.E.R.T.6.o.L < +                             ",
"                                    7 7 & $ 8 9 & @ = 1 = + O # %                                   ",
"                                  7 O s d # Q / / ~ u 1.-.s s O &                                   ",
"                                  @ R =.c O t d Q d r j.>.q 0 $ @                                   ",
"                                  ; -.h.:.& Y =.Z C j h.1.j =.1 , %                                 ",
"                                7 j m c j j j.z.z.k.C 1.h.U j.j 2 &                                 ",
"                                & $ ; m = A c.z.z.x.C 1.h.c j.c + #                                 ",
"                                u P.4.J 1 <.l.z.z.c.Z 2.j.c h.A ; J.<                               ",
"                              + o.E.W.J.@ <.l.z.z.c.Z 1.j.v h.-.p 5.=                               ",
"                              , 5.!.*X4.1 ,.z.z.z.z.Z 2.c.v 1.-.- o.p                               ",
"                              % i 5.I.J x >.l.l.z.z.Z >.c.x 2.=.<  .@                               ",
"                                  % $ O : 3 x c V C j v c - ; = #                                   ",
"                                      7 2 U U B = O $ 3 x A A -                                     ",
"                                      % c <.k.h.=   # m ,.j.:.&                                     ",
"                                      % : j Z c #     = 2 j : %                                     ",
"                                        O 0 0 .       o 8 s & #                                     ",
"                                        X * X X         * * X                                       "
};
