/* XPM */
static char *_64c406ec5ea4ef18cfddfa21938a719jSyfuLusFbkKt3W5[] = {
/* columns rows colors chars-per-pixel */
"50 50 30 1 ",
"  c #0A0D0D",
". c #0C100F",
"X c #0C0F11",
"o c #0D1314",
"O c #0F1619",
"+ c #0F1819",
"@ c #101616",
"# c #121917",
"$ c #11161A",
"% c #131B1C",
"& c #16211F",
"* c #19211D",
"= c #161D22",
"- c #181F23",
"; c #162123",
": c #192325",
"> c #1C2926",
", c #1C252C",
"< c #1E292D",
"1 c #1E2730",
"2 c #1F2830",
"3 c #212B2D",
"4 c #21302E",
"5 c #212B33",
"6 c #252E38",
"7 c #243235",
"8 c #263138",
"9 c #29343C",
"0 c #2B393E",
"q c #2E3B40",
/* pixels */
"9,<,1$=51,:,,12O;1<<11,=-8,<<1$=21,,,,22+;2111,,-%",
"<<<15,$111,,,12=,<,,11,=%,<<11,#111:,,12=,2,111,-%",
"<555-$#,<-,2,11==11111=o+,555-$%:1:,1,12==2212,-O@",
"%%==%X X++o$-,2;==o$%O+%%%%=-%  o++oO-,2==%o$+++%%",
">%%0,@-,$8< ;%::XO>+o==-;;=%0,@,<+7< ;%;;oo:+o==;=",
"<=-1-,<-:,;+2536512=%,,-,<==<--,-,,=#<657526=%1-::",
"--%1=,-$+=++<5115,,-=,,,-,-%1=-,%+;%o251351-;=<,,-",
"+;;=+%++%%o%<<,<-%O%o=+%+o;===$+o+%o+2<,<-+O%o=%$O",
"$%%#%XX%@% @%$@%#%@ ;=%+$$%*@%o.$o%oo%%o%$$# ;=$+O",
"5,%35%%5,3<#,5><,5;%5<<,,51%>5%%7,<<#<<,3<5;%5<<11",
"<5535,%21<<;;55,;1,%,,,1,,<255,%22<<;>12,-<,%;,<1,",
"=;;;>>:,,,>=-<5,;;:%=,:-==--;>::,;,,;;<5,;;:%,,;==",
"+o%++%%%+%&%%%==%%:*;%++@@o+%$%#%%%&#%%==%%;--%%+O",
"37%$%$%;<;%;>,35$585,<> <57%@%%%-,;%;,,35$585,<> <",
"65=;,,,25,,55555;551<5, 086==,;135;,55556;555,5,Xq",
"5,o<<<-15;,,<565;55665<=76,o<<<,55:,,<665:55555<=6",
"5=%5<<,=>:=;=5;%335<-,,o25=$52<,=::;;;2:%><5<;,<o5",
"$-3%OO$o##o%+o+$##$ooo#.;%-3%$O$@+@o%@o@+%%+o o% =",
"3;>=,@,6<7,,%>76<<3; ,667<;>%,%;727:<%:76,<3- <665",
"66555;-,<2,<-565655=%656566565;:112<<;285662-%5666",
",1151=,<11<<;56<55<==5511-,15,=,111<<;22<25<%;51<5",
"5-1-=$=1<1<,;>6<115->2551111<=$=2112::<82252->2551",
"=$==+O%:-;,-=%-=%$%%o%%;-=$$%@@$:;:,;=%;=%%%%o%%--",
"Xo=,<o oXXo%;;<oX->>3;;; o@;33XXo oo+;>2o ;><4;;; ",
"8<515o$5,,,,<89X<911111OX6,215+$2,:,:189X>011111+ ",
"8,<,,=-621;,,21o><,1,11==8<<<,%-61,,,,21o,<,<,1,-$",
"<<1<3,@<1,,,,<2=;2<,111=%,<<55,$11,:,,<2=,1<,111-%",
"1552-%@,,-,1,,2==5111,-o%,225;$#:1:,1,,1$%5111,=O+",
"%%==$X X++X+;,5;%=X$+OO%%%=-=#  o++o%;,5:%=X=+O+%%",
">-%0,@;<%7< &&::o@;=X==-%;=$9,#:<$7< ;%;:@o>%X==;%",
"<==1-,<-,,=$5557212;=1,-,3=-1--1-,,-$2256536=$1-;,",
"--=1=,;$+=$$<<222,,:=1-,--==1=,-++=$$<5221<-==1,,-",
"O-:%%%+$$%o%<1,,;%+%o=%$+$;;%%%@+%%o%<<,,,%+%o=%$+",
"$$*@#oX$@%Xo%%+%#$$ ;;%@$$%*@%oX$@% o%$+$+%$ ;=%$$",
"<<%35%%7,<<%,2><,2;%5,<,,33%>5-%5,<<%,<<<,2;%6,<,<",
"<3555,%231<;>12,,<,%,,<<,<3555,%35<<;>22,:2,$-<<<,",
"==;::>&<::,=;<5,>=:%;;,===;;,,>%,,,:;:<2,;=>%;,,;=",
"+o@%++%++&&%%%==%%:&;%%%Ooo%+o%%%+&&++%&=%%;*;+%%o",
"<7%@%+=:<;%;>,<5$366<<; <57%+%%%:>;%>,,,2%385,<> 3",
"66=:<:,22,,21655;52215, q67=;,;<<2,,22565;621<5,.0",
"5,@<11-,2,<<<665;56555<-65,@<11-35;<1,665;555551%9",
"5=%3<1,=;>%;=2:+><5<-,>@55-%1111=>:;;=2:%>3<5-,,o5",
"$-3%OO$@%#o%#o+$#%+oXo% =$;3=+@$o$oo%+oo%#%%o o% ;",
",,>=,$:6<7<<%:56<<2= 3665<;>%,#>737,,=>75<<5; 3665",
"65555=;,<11,;576661=Oq1q666151;;<,5,1;265661-%5656",
",,,51=,5<2,,;56<111==1123,,111=,1<1,,;57115,%;5351",
"1-11=O-11<<,;>6<111==1121111<=$=115,,;,6515<->5555",
"==$$O+%,--,;=%===O==O==-==$o%$$%,--,:%%-=$+=%o=$;=",
"XO;5<o oXX@%&;5o ::>3=;; .o:<<o oXXo%&;3oX:>>3=;; ",
"6,515@%3;>,,379X>0<55<<@o7<223#%5;,,><89o>0<1212% "
};
